<svg
viewBox="0 0 56 58"
fill="none"
xmlns="http://www.w3.org/2000/svg"
>
<path
d="M40.25 41.6875H15.2688L9.16563 6.93281C9.09422 6.5166 8.88459 6.13934 8.57301 5.86628C8.26144 5.59322 7.86751 5.44155 7.45937 5.4375H3.5"
stroke="black"
stroke-width="2"
stroke-linecap="round"
stroke-linejoin="round"
/>
<path
d="M17.5 50.75C19.9162 50.75 21.875 48.7213 21.875 46.2188C21.875 43.7162 19.9162 41.6875 17.5 41.6875C15.0838 41.6875 13.125 43.7162 13.125 46.2188C13.125 48.7213 15.0838 50.75 17.5 50.75Z"
stroke="black"
stroke-width="2"
stroke-linecap="round"
stroke-linejoin="round"
/>
<path
d="M40.25 50.75C42.6662 50.75 44.625 48.7213 44.625 46.2188C44.625 43.7162 42.6662 41.6875 40.25 41.6875C37.8338 41.6875 35.875 43.7162 35.875 46.2188C35.875 48.7213 37.8338 50.75 40.25 50.75Z"
stroke="black"
stroke-width="2"
stroke-linecap="round"
stroke-linejoin="round"
/>
<path
d="M13.6719 32.625H41.1469C41.9649 32.6276 42.7577 32.3314 43.3858 31.7886C44.0139 31.2458 44.4372 30.4911 44.5813 29.657L47.25 14.5H10.5"
stroke="black"
stroke-width="2"
stroke-linecap="round"
stroke-linejoin="round"
/>
</svg>