<svg width="302" height="75" viewBox="0 0 302 75" fill="none" xmlns="http://www.w3.org/2000/svg">
<ellipse cx="33.0401" cy="43.9253" rx="26.398" ry="23.0894" stroke="#3B3E3C" stroke-width="2"/>
<path d="M13.7951 28.0514L17.2864 16.0257L20.7778 4M20.7778 4L29.2933 21.6377M20.7778 4H22.4809L33.551 20.836L59.7787 7.04651M59.7787 7.04651L52.1148 28.0514M59.7787 7.04651H61.3115L57.224 29.3342M56.2022 33.9841L57.224 29.3342M57.224 29.3342C68.1239 39.5961 64.5474 64.9303 43.5993 66.5337" stroke="#3B3E3C" stroke-width="2"/>
<rect x="24.0137" y="35.2668" width="3.74681" height="6.09302" fill="#3B3E3C"/>
<rect x="33.8916" y="35.2668" width="3.74681" height="6.09302" fill="#3B3E3C"/>
<rect x="26.7386" y="37.8323" width="1.02186" height="1.28274" fill="#FFFEFE"/>
<rect x="36.6166" y="37.8323" width="1.02186" height="1.28274" fill="#FFFEFE"/>
<line y1="-1" x2="3.01178" y2="-1" transform="matrix(0.904766 0.425909 -0.469038 0.883178 25.7168 31.7393)" stroke="#3B3E3C" stroke-width="2"/>
<line y1="-1" x2="3.01178" y2="-1" transform="matrix(0.904766 -0.425909 0.469038 0.883178 33.551 33.022)" stroke="#3B3E3C" stroke-width="2"/>
<path d="M23.1621 53.0649C25.2058 54.7753 29.9745 57.0094 32.6995 52.2632C34.5161 54.5615 38.7966 57.6187 41.3853 51.4615" stroke="#3B3E3C" stroke-width="2"/>
<ellipse cx="31.5073" cy="66.0527" rx="1.7031" ry="1.92411" fill="#FFE3E3"/>
<path d="M44.7914 66.694C43.3572 71.8562 41.7414 73.1077 37.979 73.1077C34.2167 73.1077 33.0885 70.1355 31.1667 66.694C34.035 64.1911 34.2167 60.2803 37.979 60.2803C41.7414 60.2803 44.7914 63.1518 44.7914 66.694Z" fill="#FFC3C3"/>
<path d="M31.8479 65.9661C31.8479 69.5561 28.702 72.4663 24.8214 72.4663C20.9408 72.4663 20.9481 69.4901 19.9262 64.7699C20.9481 60.6712 22.605 58.3561 26.4856 58.3561C30.3662 58.3561 31.8479 62.3762 31.8479 65.9661Z" fill="#FFCBCB"/>
<path d="M31.6776 64.7329C31.9816 65.1145 32.1764 64.8865 32.2861 65.251M31.6776 64.7329L32.2861 65.251M31.6776 64.7329C31.4092 64.8719 31.1058 64.4717 30.8261 64.7329M32.2861 65.251C33.8916 60.9217 40.704 55.7907 43.5993 65.0906C44.6211 71.825 36.1057 78.5594 32.2075 67.0147M32.2861 65.251C32.4776 65.8875 32.409 66.4875 32.2075 67.0147M32.2075 67.0147C31.9038 67.8092 32.0182 67.6561 31.1667 67.8165C30.4854 67.4958 29.8908 67.3136 29.8863 66.6941M30.8261 64.7329C32.2075 59.639 24.0137 53.3856 20.9481 64.4492C19.245 72.1457 28.2714 78.2387 29.8863 66.6941M30.8261 64.7329C30.4937 65.0433 30.1946 65.4343 30.0271 65.8923M29.8863 66.6941C29.8842 66.4085 29.9363 66.1406 30.0271 65.8923M25.0355 64.7329C24.8652 65.3743 27.942 66.8544 30.0271 65.8923M32.6995 66.213C33.7213 66.9078 36.9231 67.5599 38.1494 65.8923" stroke="#8A1616" stroke-width="2"/>
<path d="M0 46.4909H11.9217" stroke="#3B3E3C" stroke-width="2"/>
<path d="M2.04372 52.4235L11.4107 51.3011" stroke="#3B3E3C" stroke-width="2"/>
<path d="M50.582 45.2081H61.8224" stroke="#3B3E3C" stroke-width="2"/>
<path d="M51.2632 49.6977L61.8224 51.4615" stroke="#3B3E3C" stroke-width="2"/>
<path d="M104.28 56.384V46.688H98.184V56.384H104.28ZM104.28 45.008V36.32H98.184V45.008H104.28ZM115.128 52.544C115.128 49.856 115.112 47.168 115.08 44.48C115.08 41.76 115.08 39.04 115.08 36.32H107.928V45.008H110.136C110.168 44.592 110.344 44.16 110.664 43.712C111.016 43.232 111.432 42.992 111.912 42.992C112.392 42.992 112.792 43.2 113.112 43.616C113.464 44 113.64 44.416 113.64 44.864C113.64 45.28 113.48 45.696 113.16 46.112C112.872 46.496 112.504 46.688 112.056 46.688H107.928V56.384H111.288C112.408 56.384 113.32 56.032 114.024 55.328C114.76 54.624 115.128 53.696 115.128 52.544ZM92.184 19.424C92.184 19.712 91.96 20.192 91.512 20.864C91.064 21.536 90.52 22.288 89.88 23.12C89.24 23.92 88.632 24.656 88.056 25.328C87.512 26 87.112 26.464 86.856 26.72C87.72 28.384 88.408 30.192 88.92 32.144C89.432 34.064 89.8 36.032 90.024 38.048C90.248 40.032 90.36 41.952 90.36 43.808C90.36 44.704 90.296 45.792 90.168 47.072C90.072 48.352 89.88 49.696 89.592 51.104C89.304 52.48 88.888 53.776 88.344 54.992C87.8 56.208 87.096 57.184 86.232 57.92C85.4 58.688 84.376 59.072 83.16 59.072C82.552 59.072 81.928 58.8 81.288 58.256C80.648 57.712 80.072 57.088 79.56 56.384C79.048 55.712 78.648 55.136 78.36 54.656C78.264 54.56 78.216 54.48 78.216 54.416C78.216 54.32 78.28 54.272 78.408 54.272C78.504 54.272 78.712 54.352 79.032 54.512C79.16 54.576 79.304 54.656 79.464 54.752C79.624 54.848 79.8 54.944 79.992 55.04C80.376 55.232 80.792 55.408 81.24 55.568C81.72 55.696 82.2 55.76 82.68 55.76C83.512 55.76 84.184 55.424 84.696 54.752C85.208 54.08 85.576 53.28 85.8 52.352C86.056 51.424 86.232 50.464 86.328 49.472C86.424 48.48 86.488 47.68 86.52 47.072C86.584 46.048 86.632 45.024 86.664 44C86.728 42.944 86.76 41.904 86.76 40.88V40.064C85.672 41.664 84.424 43.248 83.016 44.816C81.64 46.352 80.12 47.664 78.456 48.752C78.36 48.784 78.216 48.864 78.024 48.992C77.832 49.12 77.64 49.248 77.448 49.376C77.224 49.504 77.016 49.616 76.824 49.712C76.632 49.808 76.472 49.856 76.344 49.856C76.152 49.856 76.056 49.792 76.056 49.664C76.056 49.632 76.088 49.552 76.152 49.424C76.6 48.88 77.064 48.336 77.544 47.792C78.056 47.248 78.536 46.688 78.984 46.112C80.552 44.128 81.976 42.016 83.256 39.776C84.536 37.504 85.512 35.152 86.184 32.72C85.928 31.216 85.528 29.792 84.984 28.448C83.992 29.504 82.856 30.56 81.576 31.616C80.296 32.672 79 33.504 77.688 34.112C77.656 34.112 77.624 34.128 77.592 34.16C77.56 34.16 77.528 34.16 77.496 34.16C77.496 34.16 77.48 34.16 77.448 34.16C77.384 34.16 77.304 34.144 77.208 34.112C77.112 34.08 77.064 34.016 77.064 33.92C77.064 33.856 77.112 33.776 77.208 33.68C78.424 32.496 79.576 31.28 80.664 30.032C81.784 28.784 82.792 27.424 83.688 25.952C83.24 25.248 82.664 24.592 81.96 23.984C81.288 23.376 80.504 23.072 79.608 23.072C79.096 23.072 78.6 23.248 78.12 23.6C77.672 23.92 77.32 24.176 77.064 24.368C76.84 24.528 76.696 24.608 76.632 24.608C76.504 24.608 76.44 24.56 76.44 24.464C76.44 24.4 76.472 24.336 76.536 24.272C76.888 23.536 77.432 22.848 78.168 22.208C78.936 21.536 79.768 21.2 80.664 21.2C81.56 21.2 82.392 21.472 83.16 22.016C83.96 22.56 84.648 23.136 85.224 23.744C85.832 22.72 86.36 21.632 86.808 20.48C87.256 19.328 87.688 18.192 88.104 17.072C88.264 17.136 88.568 17.28 89.016 17.504C89.464 17.728 89.912 17.968 90.36 18.224C90.84 18.448 91.256 18.672 91.608 18.896C91.992 19.12 92.184 19.296 92.184 19.424ZM119.112 51.152C119.112 53.584 118.456 55.344 117.144 56.432C115.864 57.52 114.04 58.064 111.672 58.064H94.536V34.592H119.112V51.152ZM122.088 24.224C122.088 24.864 121.864 25.392 121.416 25.808C121 26.192 120.472 26.384 119.832 26.384H112.2C111.88 27.12 111.512 28.032 111.096 29.12C110.712 30.176 110.312 31.024 109.896 31.664C109.832 31.792 109.736 31.904 109.608 32C109.512 32.096 109.384 32.144 109.224 32.144C109.096 32.144 109 32.096 108.936 32C108.872 31.872 108.84 31.744 108.84 31.616C108.84 30.752 108.888 29.888 108.984 29.024C109.112 28.128 109.208 27.248 109.272 26.384H102.744L103.032 30.944L99.432 31.136L99.096 26.384H91.704V24.848H99L98.424 17.696L102.216 17.504L102.648 24.848H109.464C109.56 23.568 109.672 22.304 109.8 21.056C109.96 19.776 110.104 18.496 110.232 17.216C110.392 17.216 110.696 17.248 111.144 17.312C111.592 17.344 112.088 17.392 112.632 17.456C113.176 17.52 113.656 17.584 114.072 17.648C114.488 17.712 114.728 17.776 114.792 17.84C114.92 17.968 114.984 18.112 114.984 18.272C114.984 18.56 114.888 19.008 114.696 19.616C114.536 20.192 114.328 20.832 114.072 21.536C113.848 22.208 113.624 22.848 113.4 23.456C113.176 24.064 113 24.528 112.872 24.848H118.008C117.976 24.688 117.96 24.48 117.96 24.224C117.96 23.68 118.168 23.2 118.584 22.784C119 22.368 119.496 22.16 120.072 22.16C120.648 22.16 121.128 22.368 121.512 22.784C121.896 23.2 122.088 23.68 122.088 24.224ZM128.232 33.056V37.568H140.088C140.344 36.832 140.488 36.08 140.52 35.312C140.552 34.544 140.584 33.792 140.616 33.056H128.232ZM138.024 25.184H135.768V31.856H137.4C137.656 31.408 137.816 30.96 137.88 30.512C137.976 30.064 138.024 29.584 138.024 29.072V25.184ZM138.024 24.032V19.712H131.496V31.856H133.8V23.984L138.024 24.032ZM162.216 42.848H149.448V47.792L158.856 47.744C159.752 47.744 160.536 47.616 161.208 47.36C161.88 47.104 162.216 46.432 162.216 45.344V42.848ZM151.368 32.72V27.824H148.344V32.72H151.368ZM157.032 32.72V27.824H154.056V32.72H157.032ZM151.368 26.624V22.112H148.344V26.624H151.368ZM157.032 26.624V22.112H154.056V26.624H157.032ZM163.272 22.112H159.768V26.624H160.392C160.456 26.464 160.552 26.304 160.68 26.144C160.808 25.984 160.968 25.904 161.16 25.904C161.416 25.904 161.608 26.032 161.736 26.288C161.896 26.512 161.976 26.72 161.976 26.912C161.976 27.456 161.704 27.76 161.16 27.824C160.936 27.856 160.696 27.872 160.44 27.872C160.216 27.84 159.992 27.824 159.768 27.824V32.72C160.632 32.656 161.432 32.48 162.168 32.192C162.904 31.904 163.272 31.232 163.272 30.176V22.112ZM144.216 31.808C144.024 33.12 143.592 34.416 142.92 35.696C142.28 36.944 141.432 37.968 140.376 38.768V52.736C140.376 53.376 140.344 54.112 140.28 54.944C140.248 55.776 140.104 56.48 139.848 57.056C139.656 57.568 139.32 58.048 138.84 58.496C138.36 58.944 137.816 59.168 137.208 59.168C136.696 59.168 136.184 58.992 135.672 58.64C135.192 58.32 134.744 57.92 134.328 57.44C133.912 56.96 133.56 56.544 133.272 56.192C133.208 56.128 133.176 56.064 133.176 56C133.176 55.936 133.24 55.904 133.368 55.904C133.432 55.904 133.56 55.936 133.752 56C134.008 56.064 134.28 56.16 134.568 56.288C134.856 56.416 135.144 56.48 135.432 56.48C135.944 56.48 136.328 56.304 136.584 55.952C136.872 55.6 137.064 55.184 137.16 54.704C137.256 54.224 137.304 53.776 137.304 53.36V38.768H131.784V42.752H133.656C133.656 42.496 133.752 42.176 133.944 41.792C134.168 41.376 134.456 41.168 134.808 41.168C135.192 41.168 135.464 41.344 135.624 41.696C135.816 42.016 135.912 42.336 135.912 42.656C135.912 43.008 135.784 43.296 135.528 43.52C135.272 43.712 134.968 43.808 134.616 43.808L131.784 43.856V47.888H133.656C133.656 47.568 133.736 47.216 133.896 46.832C134.088 46.448 134.392 46.256 134.808 46.256C135.192 46.256 135.464 46.432 135.624 46.784C135.816 47.104 135.912 47.424 135.912 47.744C135.912 48.064 135.784 48.336 135.528 48.56C135.304 48.784 135.016 48.896 134.664 48.896L131.784 48.944V58.88H128.712V38.672L125.064 38.624V31.76L128.616 31.808V18.32H141.048V27.056C141.048 27.984 140.952 28.832 140.76 29.6C140.6 30.336 140.248 31.088 139.704 31.856L144.216 31.808ZM168.888 56.624C168.888 57.072 168.712 57.488 168.36 57.872C168.04 58.288 167.624 58.496 167.112 58.496L142.632 58.4V56.72H151.704C151.128 55.792 150.536 54.896 149.928 54.032C149.352 53.136 148.76 52.256 148.152 51.392C148.472 51.296 148.888 51.184 149.4 51.056C149.944 50.896 150.488 50.768 151.032 50.672C151.576 50.544 151.992 50.48 152.28 50.48C152.44 50.48 152.552 50.56 152.616 50.72C152.648 50.784 152.664 50.896 152.664 51.056C152.728 51.344 152.744 51.632 152.712 51.92C152.712 52.208 152.728 52.496 152.76 52.784C152.792 53.424 152.84 54.08 152.904 54.752C152.968 55.392 153.032 56.048 153.096 56.72H157.8C158.088 55.696 158.344 54.672 158.568 53.648C158.824 52.592 159.064 51.536 159.288 50.48C159.512 50.544 159.816 50.624 160.2 50.72C160.584 50.816 160.984 50.912 161.4 51.008C161.816 51.104 162.2 51.216 162.552 51.344C162.904 51.44 163.144 51.52 163.272 51.584C163.368 51.616 163.416 51.712 163.416 51.872C163.416 52 163.224 52.288 162.84 52.736C162.488 53.184 162.056 53.68 161.544 54.224C161.032 54.768 160.552 55.28 160.104 55.76C159.656 56.208 159.336 56.528 159.144 56.72H165.384C165.416 56.272 165.576 55.824 165.864 55.376C166.184 54.928 166.6 54.704 167.112 54.704C167.592 54.704 168.008 54.912 168.36 55.328C168.712 55.744 168.888 56.176 168.888 56.624ZM165.48 44.768C165.48 46.176 165.304 47.2 164.952 47.84C164.6 48.48 164.04 48.88 163.272 49.04C162.504 49.2 161.48 49.28 160.2 49.28H146.424V41.216H165.48V44.768ZM169.944 36.608C169.944 37.12 169.752 37.568 169.368 37.952C169.016 38.336 168.568 38.528 168.024 38.528H143.448V37.04L166.104 37.088C166.136 36.544 166.296 35.968 166.584 35.36C166.872 34.752 167.352 34.448 168.024 34.448C168.568 34.448 169.016 34.688 169.368 35.168C169.752 35.616 169.944 36.096 169.944 36.608ZM166.584 29.648C166.584 31.44 166.072 32.624 165.048 33.2C164.056 33.744 162.76 34.016 161.16 34.016H145.512V20.72L151.368 20.768V16.112H154.056V20.768H157.032V16.112H159.768V20.768L166.584 20.72V29.648ZM217.224 53.312C217.224 53.92 216.968 54.48 216.456 54.992C215.976 55.472 215.416 55.712 214.776 55.712H173.784V53.744H192.552V25.616H176.952V23.6H209.496C209.496 22.928 209.736 22.304 210.216 21.728C210.728 21.12 211.368 20.816 212.136 20.816C212.84 20.816 213.416 21.088 213.864 21.632C214.312 22.144 214.536 22.72 214.536 23.36C214.536 23.968 214.28 24.496 213.768 24.944C213.288 25.392 212.728 25.616 212.088 25.616H197.16V53.744H211.848C211.848 52.944 212.072 52.208 212.52 51.536C212.968 50.864 213.656 50.528 214.584 50.528C215.384 50.528 216.024 50.816 216.504 51.392C216.984 51.936 217.224 52.576 217.224 53.312ZM265.032 47.456C265.032 48.192 264.76 48.752 264.216 49.136C263.704 49.488 263.08 49.664 262.344 49.664H245.496C245.496 50.368 245.496 51.088 245.496 51.824C245.496 52.56 245.464 53.296 245.4 54.032C245.336 55.152 245.176 56.192 244.92 57.152C244.696 58.144 244.248 58.928 243.576 59.504C242.936 60.112 241.912 60.416 240.504 60.416C239.928 60.416 239.208 60.272 238.344 59.984C237.512 59.728 236.712 59.392 235.944 58.976C235.176 58.56 234.584 58.176 234.168 57.824C234.04 57.76 233.976 57.664 233.976 57.536C233.976 57.376 234.072 57.296 234.264 57.296C234.328 57.296 234.376 57.296 234.408 57.296C234.44 57.328 234.472 57.344 234.504 57.344C235.016 57.472 235.544 57.568 236.088 57.632C236.632 57.728 237.16 57.776 237.672 57.776C239.08 57.776 240.008 57.456 240.456 56.816C240.936 56.176 241.192 55.216 241.224 53.936L241.368 49.664H222.648V47.888H241.368V47.6C241.368 46.992 241.336 46.4 241.272 45.824C241.208 45.216 241.144 44.608 241.08 44L245.304 44.288C245.848 43.872 246.344 43.44 246.792 42.992C247.272 42.512 247.72 42 248.136 41.456H232.2V39.776H253.56C253.656 39.776 253.72 39.824 253.752 39.92C253.784 40.016 253.8 40.096 253.8 40.16C253.8 40.192 253.768 40.272 253.704 40.4C252.904 41.872 251.72 43.056 250.152 43.952C248.584 44.848 247 45.472 245.4 45.824L245.544 47.888H260.616C260.616 47.824 260.6 47.76 260.568 47.696C260.568 47.6 260.568 47.52 260.568 47.456C260.568 46.88 260.792 46.336 261.24 45.824C261.688 45.28 262.216 45.008 262.824 45.008C263.464 45.008 263.992 45.28 264.408 45.824C264.824 46.336 265.032 46.88 265.032 47.456ZM247.848 33.2C247.848 33.36 247.752 33.44 247.56 33.44C247.496 33.44 247.272 33.36 246.888 33.2C246.536 33.04 246.152 32.848 245.736 32.624C245.32 32.4 244.92 32.192 244.536 32C244.152 31.808 243.88 31.68 243.72 31.616C243.368 31.872 242.792 32.224 241.992 32.672C241.224 33.12 240.44 33.52 239.64 33.872C238.872 34.192 238.28 34.352 237.864 34.352C237.736 34.352 237.672 34.336 237.672 34.304C237.672 34.208 237.704 34.128 237.768 34.064C237.768 34.064 237.8 34.032 237.864 33.968C237.896 33.936 237.928 33.92 237.96 33.92C238.664 33.44 239.368 32.944 240.072 32.432C240.776 31.888 241.416 31.296 241.992 30.656C241.48 30.4 240.968 30.16 240.456 29.936C239.944 29.712 239.416 29.472 238.872 29.216L240.84 27.728C241.224 27.952 241.608 28.192 241.992 28.448C242.376 28.672 242.76 28.896 243.144 29.12C243.496 28.704 243.816 28.272 244.104 27.824C244.392 27.376 244.648 26.912 244.872 26.432L247.752 27.488C247.4 28 247 28.496 246.552 28.976C246.104 29.424 245.64 29.872 245.16 30.32C245.288 30.448 245.496 30.64 245.784 30.896C246.072 31.152 246.36 31.44 246.648 31.76C246.968 32.048 247.24 32.336 247.464 32.624C247.72 32.88 247.848 33.072 247.848 33.2ZM264.12 34.832C263.992 35.76 263.656 36.72 263.112 37.712C262.568 38.704 261.928 39.648 261.192 40.544C260.488 41.408 259.8 42.144 259.128 42.752C259 42.88 258.856 42.992 258.696 43.088C258.536 43.184 258.376 43.232 258.216 43.232C258.024 43.232 257.896 43.152 257.832 42.992C257.8 42.832 257.784 42.688 257.784 42.56C257.784 42.496 257.784 42.432 257.784 42.368C257.816 42.304 257.832 42.24 257.832 42.176C257.992 41.248 258.088 40.32 258.12 39.392C258.184 38.432 258.264 37.488 258.36 36.56H227.928V42.128H223.944V34.784H228.552V18.752L232.152 19.136C233.112 18.752 234.056 18.336 234.984 17.888C235.912 17.44 236.84 16.976 237.768 16.496C237.96 16.56 238.344 16.752 238.92 17.072C239.496 17.36 240.04 17.68 240.552 18.032C241.064 18.352 241.32 18.592 241.32 18.752C241.32 18.912 241.176 19.04 240.888 19.136C240.632 19.2 240.344 19.248 240.024 19.28C239.704 19.312 239.48 19.328 239.352 19.328C238.104 19.456 236.872 19.616 235.656 19.808C234.44 19.968 233.208 20.128 231.96 20.288V24.08H235.608C235.64 23.824 235.752 23.584 235.944 23.36C236.136 23.136 236.392 23.024 236.712 23.024C237.032 23.024 237.288 23.152 237.48 23.408C237.672 23.632 237.768 23.888 237.768 24.176C237.768 24.592 237.64 24.896 237.384 25.088C237.128 25.248 236.808 25.328 236.424 25.328H231.96V29.216H235.608C235.64 28.96 235.752 28.72 235.944 28.496C236.136 28.272 236.392 28.16 236.712 28.16C237.032 28.16 237.288 28.288 237.48 28.544C237.672 28.768 237.768 29.024 237.768 29.312C237.768 29.632 237.656 29.904 237.432 30.128C237.24 30.352 236.968 30.464 236.616 30.464H231.96V34.832H253.032C253.768 34.832 254.248 34.528 254.472 33.92C254.696 33.312 254.808 32.704 254.808 32.096C254.808 31.84 254.792 31.568 254.76 31.28C254.76 30.992 254.76 30.72 254.76 30.464H249.192V29.12H254.76C254.76 28.512 254.76 27.888 254.76 27.248C254.76 26.608 254.776 25.968 254.808 25.328H249.192V23.984H254.808V20H248.904V18.608H258.456V30.944C258.456 31.648 258.408 32.32 258.312 32.96C258.216 33.568 258.008 34.192 257.688 34.832H264.12ZM247.656 25.376C247.656 25.536 247.576 25.616 247.416 25.616C247.32 25.616 247.096 25.536 246.744 25.376C246.392 25.184 245.992 24.976 245.544 24.752C245.128 24.528 244.728 24.32 244.344 24.128C243.96 23.904 243.672 23.76 243.48 23.696C243.288 23.888 242.952 24.16 242.472 24.512C242.024 24.864 241.512 25.248 240.936 25.664C240.392 26.048 239.88 26.384 239.4 26.672C238.92 26.928 238.568 27.056 238.344 27.056C238.088 27.056 237.96 26.96 237.96 26.768C237.96 26.704 238.024 26.608 238.152 26.48C238.824 25.936 239.464 25.376 240.072 24.8C240.712 24.192 241.288 23.536 241.8 22.832C241.288 22.576 240.776 22.336 240.264 22.112C239.752 21.856 239.224 21.616 238.68 21.392L240.6 19.904C240.824 20.032 241.032 20.16 241.224 20.288C241.448 20.384 241.656 20.496 241.848 20.624C242.008 20.752 242.184 20.88 242.376 21.008C242.568 21.104 242.76 21.216 242.952 21.344C243.24 20.8 243.512 20.24 243.768 19.664C244.024 19.088 244.28 18.496 244.536 17.888L247.512 18.992C247.16 19.6 246.76 20.208 246.312 20.816C245.864 21.392 245.4 21.952 244.92 22.496C245.08 22.624 245.304 22.816 245.592 23.072C245.88 23.296 246.184 23.552 246.504 23.84C246.824 24.128 247.096 24.416 247.32 24.704C247.544 24.96 247.656 25.184 247.656 25.376Z" fill="#686868"/>
</svg>
