<svg
    viewBox="0 0 59 61"
    fill="none"
    xmlns="http://www.w3.org/2000/svg"
>
    <path
        d="M29.5 45.75V53.375"
        stroke="black"
        stroke-width="2"
        stroke-linecap="round"
        stroke-linejoin="round"
    />
    <path
        d="M19.3594 36.2188C20.8868 36.2188 22.125 34.9386 22.125 33.3594C22.125 31.7802 20.8868 30.5 19.3594 30.5C17.832 30.5 16.5938 31.7802 16.5938 33.3594C16.5938 34.9386 17.832 36.2188 19.3594 36.2188Z"
        fill="black"
    />
    <path
        d="M39.6406 36.2188C41.168 36.2188 42.4062 34.9386 42.4062 33.3594C42.4062 31.7802 41.168 30.5 39.6406 30.5C38.1132 30.5 36.875 31.7802 36.875 33.3594C36.875 34.9386 38.1132 36.2188 39.6406 36.2188Z"
        fill="black"
    />
    <path
        d="M29.5 11.4375V20.9688"
        stroke="black"
        stroke-width="2"
        stroke-linecap="round"
        stroke-linejoin="round"
    />
    <path
        d="M33.1875 41.9375L29.5 45.75L25.8125 41.9375"
        stroke="black"
        stroke-width="2"
        stroke-linecap="round"
        stroke-linejoin="round"
    />
    <path
        d="M22.125 12.6289V20.9688"
        stroke="black"
        stroke-width="2"
        stroke-linecap="round"
        stroke-linejoin="round"
    />
    <path
        d="M36.875 12.6289V20.9688"
        stroke="black"
        stroke-width="2"
        stroke-linecap="round"
        stroke-linejoin="round"
    />
    <path
        d="M7.375 32.4063V12.2238C7.37561 11.8458 7.4849 11.4766 7.68898 11.1629C7.89306 10.8493 8.18271 10.6055 8.52113 10.4625C8.85955 10.3195 9.23145 10.2837 9.58958 10.3597C9.94771 10.4357 10.2759 10.6201 10.5324 10.8895L15.5797 16.1078C19.6119 13.0411 24.4944 11.4031 29.5 11.4375C34.5056 11.4031 39.3881 13.0411 43.4203 16.1078V16.1078L48.4676 10.8895C48.7241 10.6201 49.0523 10.4357 49.4104 10.3597C49.7685 10.2837 50.1405 10.3195 50.4789 10.4625C50.8173 10.6055 51.1069 10.8493 51.311 11.1629C51.5151 11.4766 51.6244 11.8458 51.625 12.2238V32.4063C51.625 43.9867 41.7148 53.375 29.5 53.375C17.2852 53.375 7.375 43.9867 7.375 32.4063Z"
        stroke="black"
        stroke-width="2"
        stroke-linecap="round"
        stroke-linejoin="round"
    />
</svg>